<?xml version="1.0" encoding="UTF-8" standalone="no"?>
<!-- Created with Inkscape (http://www.inkscape.org/) -->
<svg
   xmlns:dc="http://purl.org/dc/elements/1.1/"
   xmlns:cc="http://creativecommons.org/ns#"
   xmlns:rdf="http://www.w3.org/1999/02/22-rdf-syntax-ns#"
   xmlns:svg="http://www.w3.org/2000/svg"
   xmlns="http://www.w3.org/2000/svg"
   xmlns:xlink="http://www.w3.org/1999/xlink"
   xmlns:sodipodi="http://sodipodi.sourceforge.net/DTD/sodipodi-0.dtd"
   xmlns:inkscape="http://www.inkscape.org/namespaces/inkscape"
   width="600"
   height="190"
   id="svg2"
   sodipodi:version="0.32"
   inkscape:version="0.46"
   version="1.0"
   sodipodi:docname="logo.svg"
   inkscape:output_extension="org.inkscape.output.svg.inkscape">
  <defs
     id="defs4">
    <linearGradient
       inkscape:collect="always"
       id="linearGradient2585">
      <stop
         style="stop-color:#204a87;stop-opacity:1;"
         offset="0"
         id="stop2587" />
      <stop
         style="stop-color:#729fcf;stop-opacity:1"
         offset="1"
         id="stop2589" />
    </linearGradient>
    <inkscape:perspective
       sodipodi:type="inkscape:persp3d"
       inkscape:vp_x="0 : 526.18109 : 1"
       inkscape:vp_y="0 : 1000 : 0"
       inkscape:vp_z="744.09448 : 526.18109 : 1"
       inkscape:persp3d-origin="372.04724 : 350.78739 : 1"
       id="perspective10" />
    <linearGradient
       inkscape:collect="always"
       xlink:href="#linearGradient2585"
       id="linearGradient2591"
       x1="275.61719"
       y1="429.68082"
       x2="334.61722"
       y2="574.33466"
       gradientUnits="userSpaceOnUse" />
  </defs>
  <sodipodi:namedview
     id="base"
     pagecolor="#ffffff"
     bordercolor="#666666"
     borderopacity="1.0"
     gridtolerance="10000"
     guidetolerance="10"
     objecttolerance="10"
     inkscape:pageopacity="0.0"
     inkscape:pageshadow="2"
     inkscape:zoom="1"
     inkscape:cx="311.06846"
     inkscape:cy="145.78393"
     inkscape:document-units="px"
     inkscape:current-layer="layer1"
     showgrid="false"
     inkscape:window-width="828"
     inkscape:window-height="683"
     inkscape:window-x="65"
     inkscape:window-y="20" />
  <metadata
     id="metadata7">
    <rdf:RDF>
      <cc:Work
         rdf:about="">
        <dc:format>image/svg+xml</dc:format>
        <dc:type
           rdf:resource="http://purl.org/dc/dcmitype/StillImage" />
      </cc:Work>
    </rdf:RDF>
  </metadata>
  <g
     inkscape:label="Layer 1"
     inkscape:groupmode="layer"
     id="layer1"
     transform="translate(8.2179575,-414.72507)">
    <path
       style="font-size:40px;font-style:normal;font-variant:normal;font-weight:normal;font-stretch:normal;fill:#000000;fill-opacity:1;stroke:#2e3436;stroke-width:29.91150856;stroke-linecap:butt;stroke-linejoin:miter;stroke-opacity:1;font-family:Dyuthi;-inkscape-font-specification:Dyuthi"
       d="M 7.538392,467.78538 C 7.276116,467.11375 7.046085,465.99759 6.84832,464.43688 C 6.342892,460.44884 7.570975,456.85996 10.53255,453.67028 C 13.472137,450.30746 18.16792,448.22172 24.619897,447.41308 C 33.164344,446.3425 39.305491,450.76944 43.043321,460.69391 L 63.52005,532.11206 C 65.04687,532.97769 66.24624,533.35587 67.11819,533.24654 L 67.64132,533.18098 L 78.52592,463.91018 C 81.67098,448.19092 87.25422,439.82864 95.27568,438.82332 C 103.64568,437.77461 111.38102,444.99636 118.48174,460.48863 L 144.14832,522.53686 C 144.51889,522.66663 145.14021,522.67684 146.01224,522.56752 C 146.53522,522.50203 147.19977,522.15453 148.00586,521.52503 L 149.50067,447.3536 C 150.49289,437.01254 155.69727,431.25194 165.11378,430.07182 C 172.08872,429.19791 177.21229,429.78893 180.48453,431.84489 C 183.7564,433.90114 185.67811,437.18339 186.24963,441.69161 C 186.46921,443.42575 186.45962,444.74808 186.22094,445.65863 L 174.09982,553.3976 C 173.16752,558.62285 171.0463,562.85211 167.73613,566.08533 C 164.25127,569.34048 160.15483,571.26303 155.44681,571.85299 C 145.33277,573.12041 138.33146,569.59394 134.44281,561.2736 L 102.62623,496.82528 L 89.61402,563.98464 C 88.35501,569.427 86.07041,573.76478 82.76015,576.99803 C 79.62413,580.20946 75.61487,582.12108 70.73238,582.73293 C 66.02413,583.32291 61.75047,582.44923 57.91138,580.11187 C 53.72343,577.81823 50.60235,574.15785 48.548146,569.13066 L 7.538392,467.78538 M 194.30522,493.6512 C 194.23482,491.38034 194.96579,489.43456 196.49813,487.81384 C 198.03043,486.19327 199.93846,485.34794 202.22223,485.27787 L 232.78934,484.34097 C 235.60007,484.2549 237.82846,485.23572 239.47454,487.28342 C 240.93945,489.16198 241.71253,491.41139 241.7938,494.03161 C 241.88579,497.00138 241.42647,499.20112 240.4158,500.63085 C 239.24019,502.41548 237.42271,503.34546 234.96333,503.42076 L 209.64204,503.41005 L 210.13751,519.39394 L 233.82087,517.61891 C 235.9289,517.55435 237.71541,518.46128 239.18042,520.33971 C 240.46422,522.04896 241.15217,524.38839 241.24428,527.35802 C 241.33088,530.15307 240.87153,532.3528 239.8663,533.95727 C 238.86635,535.73648 237.31235,536.65838 235.20434,536.72295 L 210.67358,536.68801 L 211.12842,551.36174 L 234.81179,549.58671 C 237.7982,549.4952 240.11171,550.38598 241.75239,552.25907 C 243.38213,553.7828 244.24848,556.20419 244.35141,559.52323 C 244.41091,561.4448 243.85562,563.38521 242.68554,565.34445 C 241.50449,566.95434 239.94781,567.78889 238.01546,567.84811 L 202.96868,568.92233 C 201.91463,568.95464 200.48759,568.29896 198.68756,566.9553 C 197.23884,565.6009 196.49283,564.22493 196.44952,562.82743 L 194.30522,493.6512 M 264.81531,490.4016 C 264.84117,488.65416 265.56868,487.0043 266.99784,485.45202 C 268.42701,483.89991 269.84454,483.13409 271.25046,483.15458 L 302.61959,483.61348 C 308.94609,483.70613 314.35645,486.3197 318.85071,491.45426 C 323.17168,496.41165 325.28308,502.21058 325.18493,508.85107 C 325.11244,513.74417 323.64192,518.09238 320.77332,521.89572 C 317.19645,526.03839 312.14139,529.11064 305.60814,531.1125 L 324.30858,550.26332 C 326.20542,552.73811 327.13447,555.28616 327.09577,557.90741 C 327.05951,560.35395 326.1498,562.4381 324.36664,564.15991 C 320.97844,567.43133 318.75717,569.05935 317.70279,569.04392 C 314.01225,568.98993 310.78826,567.10748 308.03081,563.39656 L 283.43808,532.62345 L 283.06966,557.52555 C 283.0205,560.84582 281.9273,563.45166 279.79006,565.34307 C 277.82848,567.23707 275.52966,568.16478 272.89363,568.12622 C 270.43328,568.09022 268.25079,567.09695 266.34613,565.14639 C 264.6146,563.3732 263.77468,560.73906 263.8264,557.24402 L 264.81531,490.4016 M 283.92672,499.59544 L 283.64361,518.73071 L 297.61473,518.93511 C 301.83239,518.99685 304.56926,518.16294 305.82531,516.43338 C 307.44052,514.18479 308.26883,511.66246 308.31023,508.86639 C 308.33604,507.11893 307.57494,505.09772 306.02698,502.80275 C 304.47371,500.85741 301.76401,499.85644 297.89784,499.7998 L 283.92672,499.59544 M 386.94105,498.54792 L 397.16081,537.10731 L 413.50238,500.40762 C 414.93942,497.52986 416.86547,495.21188 419.28054,493.45365 C 422.03372,491.89446 424.63763,491.20077 427.09223,491.37253 C 429.89727,491.56902 432.37158,492.70588 434.51505,494.7831 C 436.82135,497.0471 438.10173,500.11519 438.35622,503.98742 L 444.5241,566.17833 L 444.37596,568.2704 C 444.20303,570.71114 443.27212,572.66079 441.58323,574.11937 C 439.89413,575.57793 437.12108,576.17218 433.26409,575.90212 C 431.16012,575.75481 429.19947,574.82914 427.38209,573.12506 C 426.39181,572.17972 425.46698,567.8225 424.60766,560.05339 L 422.59594,521.28027 C 422.06989,521.24348 421.6254,521.29998 421.2625,521.4497 L 406.72478,558.80132 C 402.86526,568.51768 399.18232,573.25308 395.67592,573.00759 C 391.99412,572.74979 388.92715,567.54176 386.47503,557.3835 L 376.38862,520.67307 L 375.91821,519.85171 C 375.56754,519.82723 375.02921,519.96472 374.30329,520.26427 L 369.58478,553.31007 C 368.55015,557.96814 367.02663,562.06635 365.01419,565.60467 C 363.00172,569.14305 360.68057,570.82017 358.05075,570.63603 C 353.66767,570.32915 350.66126,569.24264 349.03149,567.37649 C 347.22639,565.49809 346.41641,563.25133 346.60161,560.63624 L 346.69417,559.32872 L 361.82797,498.62922 C 362.61315,495.00502 364.39474,492.23892 367.17275,490.33091 C 369.60002,488.39849 372.30394,487.53659 375.28445,487.74521 C 381.42068,488.17489 385.30622,491.7758 386.94105,498.54792 M 546.08196,477.94618 L 496.9481,475.50281 C 494.15984,475.13918 490.98169,474.37207 487.41363,473.20145 C 484.04263,471.88049 481.83867,470.44725 480.80176,468.90172 C 479.63621,466.98712 478.46358,464.45454 477.2839,461.30397 C 476.30123,458.0031 475.93566,455.39954 476.18718,453.49326 C 476.71293,449.50783 478.26857,446.4498 480.85407,444.31919 C 483.68233,441.69171 487.10053,440.63933 491.10862,441.16205 L 558.28719,449.92534 C 564.03775,450.67563 568.78708,452.96971 572.53517,456.8076 C 575.93449,460.60025 577.31417,464.92252 576.6742,469.77441 C 576.21686,473.24022 574.55124,476.46016 571.67731,479.43424 L 501.95894,554.41935 L 553.11538,557.65538 C 558.69168,558.38283 562.66825,560.48799 565.04509,563.97082 C 567.49028,566.93383 568.30144,571.53447 567.4786,577.77274 C 566.99839,581.41174 565.26849,584.44704 562.2889,586.87863 C 559.30907,589.31019 555.37953,590.20775 550.50026,589.57124 L 472.86591,579.44401 C 471.12325,579.21669 469.91483,578.97094 469.24066,578.70671 C 468.58931,578.2692 467.98371,577.48513 467.42383,576.35449 C 466.86392,575.22385 466.28115,574.26651 465.67559,573.48241 C 464.91854,572.50234 464.52149,571.48107 464.48441,570.41862 C 464.62155,569.37892 464.96728,568.10201 465.52156,566.58789 C 466.07581,565.07379 466.41009,563.88353 466.52444,563.0171 C 466.32166,560.5229 469.57569,556.01191 476.28656,549.48405 L 546.08196,477.94618"
       id="text2571"
       sodipodi:nodetypes="cscscccccsccsccssscccsccccsccccscccsccccccsccccccscccccccscccscccsssccccsscccccsscccccccsccccsssccccscccccsscccccsccccccsccccsccccsscccsscsccc" />
    <path
       sodipodi:nodetypes="cscscccccsccsccssscccsccccsccccscccsccccccsccccccscccccccscccscccsssccccsscccccsscccccccsccccsssccccscccccsscccccsccccccsccccsccccsscccsscsccc"
       id="path2583"
       d="M 7.538392,467.78538 C 7.276116,467.11375 7.046085,465.99759 6.84832,464.43688 C 6.342892,460.44884 7.570975,456.85996 10.53255,453.67028 C 13.472137,450.30746 18.16792,448.22172 24.619897,447.41308 C 33.164344,446.3425 39.305491,450.76944 43.043321,460.69391 L 63.52005,532.11206 C 65.04687,532.97769 66.24624,533.35587 67.11819,533.24654 L 67.64132,533.18098 L 78.52592,463.91018 C 81.67098,448.19092 87.25422,439.82864 95.27568,438.82332 C 103.64568,437.77461 111.38102,444.99636 118.48174,460.48863 L 144.14832,522.53686 C 144.51889,522.66663 145.14021,522.67684 146.01224,522.56752 C 146.53522,522.50203 147.19977,522.15453 148.00586,521.52503 L 149.50067,447.3536 C 150.49289,437.01254 155.69727,431.25194 165.11378,430.07182 C 172.08872,429.19791 177.21229,429.78893 180.48453,431.84489 C 183.7564,433.90114 185.67811,437.18339 186.24963,441.69161 C 186.46921,443.42575 186.45962,444.74808 186.22094,445.65863 L 174.09982,553.3976 C 173.16752,558.62285 171.0463,562.85211 167.73613,566.08533 C 164.25127,569.34048 160.15483,571.26303 155.44681,571.85299 C 145.33277,573.12041 138.33146,569.59394 134.44281,561.2736 L 102.62623,496.82528 L 89.61402,563.98464 C 88.35501,569.427 86.07041,573.76478 82.76015,576.99803 C 79.62413,580.20946 75.61487,582.12108 70.73238,582.73293 C 66.02413,583.32291 61.75047,582.44923 57.91138,580.11187 C 53.72343,577.81823 50.60235,574.15785 48.548146,569.13066 L 7.538392,467.78538 M 194.30522,493.6512 C 194.23482,491.38034 194.96579,489.43456 196.49813,487.81384 C 198.03043,486.19327 199.93846,485.34794 202.22223,485.27787 L 232.78934,484.34097 C 235.60007,484.2549 237.82846,485.23572 239.47454,487.28342 C 240.93945,489.16198 241.71253,491.41139 241.7938,494.03161 C 241.88579,497.00138 241.42647,499.20112 240.4158,500.63085 C 239.24019,502.41548 237.42271,503.34546 234.96333,503.42076 L 209.64204,503.41005 L 210.13751,519.39394 L 233.82087,517.61891 C 235.9289,517.55435 237.71541,518.46128 239.18042,520.33971 C 240.46422,522.04896 241.15217,524.38839 241.24428,527.35802 C 241.33088,530.15307 240.87153,532.3528 239.8663,533.95727 C 238.86635,535.73648 237.31235,536.65838 235.20434,536.72295 L 210.67358,536.68801 L 211.12842,551.36174 L 234.81179,549.58671 C 237.7982,549.4952 240.11171,550.38598 241.75239,552.25907 C 243.38213,553.7828 244.24848,556.20419 244.35141,559.52323 C 244.41091,561.4448 243.85562,563.38521 242.68554,565.34445 C 241.50449,566.95434 239.94781,567.78889 238.01546,567.84811 L 202.96868,568.92233 C 201.91463,568.95464 200.48759,568.29896 198.68756,566.9553 C 197.23884,565.6009 196.49283,564.22493 196.44952,562.82743 L 194.30522,493.6512 M 264.81531,490.4016 C 264.84117,488.65416 265.56868,487.0043 266.99784,485.45202 C 268.42701,483.89991 269.84454,483.13409 271.25046,483.15458 L 302.61959,483.61348 C 308.94609,483.70613 314.35645,486.3197 318.85071,491.45426 C 323.17168,496.41165 325.28308,502.21058 325.18493,508.85107 C 325.11244,513.74417 323.64192,518.09238 320.77332,521.89572 C 317.19645,526.03839 312.14139,529.11064 305.60814,531.1125 L 324.30858,550.26332 C 326.20542,552.73811 327.13447,555.28616 327.09577,557.90741 C 327.05951,560.35395 326.1498,562.4381 324.36664,564.15991 C 320.97844,567.43133 318.75717,569.05935 317.70279,569.04392 C 314.01225,568.98993 310.78826,567.10748 308.03081,563.39656 L 283.43808,532.62345 L 283.06966,557.52555 C 283.0205,560.84582 281.9273,563.45166 279.79006,565.34307 C 277.82848,567.23707 275.52966,568.16478 272.89363,568.12622 C 270.43328,568.09022 268.25079,567.09695 266.34613,565.14639 C 264.6146,563.3732 263.77468,560.73906 263.8264,557.24402 L 264.81531,490.4016 M 283.92672,499.59544 L 283.64361,518.73071 L 297.61473,518.93511 C 301.83239,518.99685 304.56926,518.16294 305.82531,516.43338 C 307.44052,514.18479 308.26883,511.66246 308.31023,508.86639 C 308.33604,507.11893 307.57494,505.09772 306.02698,502.80275 C 304.47371,500.85741 301.76401,499.85644 297.89784,499.7998 L 283.92672,499.59544 M 386.94105,498.54792 L 397.16081,537.10731 L 413.50238,500.40762 C 414.93942,497.52986 416.86547,495.21188 419.28054,493.45365 C 422.03372,491.89446 424.63763,491.20077 427.09223,491.37253 C 429.89727,491.56902 432.37158,492.70588 434.51505,494.7831 C 436.82135,497.0471 438.10173,500.11519 438.35622,503.98742 L 444.5241,566.17833 L 444.37596,568.2704 C 444.20303,570.71114 443.27212,572.66079 441.58323,574.11937 C 439.89413,575.57793 437.12108,576.17218 433.26409,575.90212 C 431.16012,575.75481 429.19947,574.82914 427.38209,573.12506 C 426.39181,572.17972 425.46698,567.8225 424.60766,560.05339 L 422.59594,521.28027 C 422.06989,521.24348 421.6254,521.29998 421.2625,521.4497 L 406.72478,558.80132 C 402.86526,568.51768 399.18232,573.25308 395.67592,573.00759 C 391.99412,572.74979 388.92715,567.54176 386.47503,557.3835 L 376.38862,520.67307 L 375.91821,519.85171 C 375.56754,519.82723 375.02921,519.96472 374.30329,520.26427 L 369.58478,553.31007 C 368.55015,557.96814 367.02663,562.06635 365.01419,565.60467 C 363.00172,569.14305 360.68057,570.82017 358.05075,570.63603 C 353.66767,570.32915 350.66126,569.24264 349.03149,567.37649 C 347.22639,565.49809 346.41641,563.25133 346.60161,560.63624 L 346.69417,559.32872 L 361.82797,498.62922 C 362.61315,495.00502 364.39474,492.23892 367.17275,490.33091 C 369.60002,488.39849 372.30394,487.53659 375.28445,487.74521 C 381.42068,488.17489 385.30622,491.7758 386.94105,498.54792 M 546.08196,477.94618 L 496.9481,475.50281 C 494.15984,475.13918 490.98169,474.37207 487.41363,473.20145 C 484.04263,471.88049 481.83867,470.44725 480.80176,468.90172 C 479.63621,466.98712 478.46358,464.45454 477.2839,461.30397 C 476.30123,458.0031 475.93566,455.39954 476.18718,453.49326 C 476.71293,449.50783 478.26857,446.4498 480.85407,444.31919 C 483.68233,441.69171 487.10053,440.63933 491.10862,441.16205 L 558.28719,449.92534 C 564.03775,450.67563 568.78708,452.96971 572.53517,456.8076 C 575.93449,460.60025 577.31417,464.92252 576.6742,469.77441 C 576.21686,473.24022 574.55124,476.46016 571.67731,479.43424 L 501.95894,554.41935 L 553.11538,557.65538 C 558.69168,558.38283 562.66825,560.48799 565.04509,563.97082 C 567.49028,566.93383 568.30144,571.53447 567.4786,577.77274 C 566.99839,581.41174 565.26849,584.44704 562.2889,586.87863 C 559.30907,589.31019 555.37953,590.20775 550.50026,589.57124 L 472.86591,579.44401 C 471.12325,579.21669 469.91483,578.97094 469.24066,578.70671 C 468.58931,578.2692 467.98371,577.48513 467.42383,576.35449 C 466.86392,575.22385 466.28115,574.26651 465.67559,573.48241 C 464.91854,572.50234 464.52149,571.48107 464.48441,570.41862 C 464.62155,569.37892 464.96728,568.10201 465.52156,566.58789 C 466.07581,565.07379 466.41009,563.88353 466.52444,563.0171 C 466.32166,560.5229 469.57569,556.01191 476.28656,549.48405 L 546.08196,477.94618"
       style="font-size:40px;font-style:normal;font-variant:normal;font-weight:normal;font-stretch:normal;fill:url(#linearGradient2591);fill-opacity:1;stroke:none;stroke-width:32;stroke-linecap:butt;stroke-linejoin:miter;stroke-opacity:1;font-family:Dyuthi;-inkscape-font-specification:Dyuthi" />
  </g>
</svg>
